Patient4_TMGait_0pt7_02_right_19_EMG.mot
version=1
nRows=34
nColumns=33
inDegrees=no
endheader
time	1LAddLong	2LGlutMax	3LGlutMed	4LIliopsoas	5LSemiMemb	6LBicFemLong	7LRecFem	8LVastMed	9LVastLat	10LGasMed	11LTibAnt	12lTibPost	13LPeroneusLong	14LSol	15LExtDigLong	16LFlexDigLong	17RAddLong	18RGlutMax	19RGlutMed	20RIliopsoas	21RSemiMemb	22RBicFemLong	23RRecFem	24RVastMed	25RVastLat	26RGasMed	27RTibAnt	28RTibPost	29RPeroneusLong	30RSol	31RExtDigLong	32RFlexDigLong
21.345	-0.002441	-0.3064	0.027771	0.008392	0.034485	-0.010834	0.61768	-0.003357	0.095673	-0.061035	-0.12985	0.008392	-0.083466	-0.078278	1.0602	0.00946	0.058136	-0.35278	-0.88638	-0.11688	-0.060577	0.15121	0.59097	0.049286	-0.51102	-0.032806	0.037384	-0.005493	0.24551	0.728	0.00351	0.016937
21.346	-0.000458	-0.21042	0.069427	0.023193	0.032349	-0.017548	0.62622	-0.010071	0.080566	-0.079041	0.036011	0.00946	-0.10101	-0.04425	0.30197	-0.001984	0.089417	-0.44861	-1.0721	-0.049286	-0.036621	0.13062	0.76218	-0.001068	-0.64651	-0.020447	0.036011	-0.024567	0.13412	0.76736	0.002136	0.009918
21.347	-0.006104	-0.1622	0.15213	0.036926	0.03479	-0.015869	0.6781	-0.006409	0.063324	-0.077057	0.13184	0.00824	-0.094604	0.059509	-0.25604	-0.003967	0.14542	-0.20325	-1.1293	-0.028076	-0.20767	0.20874	0.82092	-0.14145	-0.5986	-0.028229	0.047455	-0.045319	-0.018921	0.40726	0.001984	0.012665
21.348	-0.009766	-0.10422	0.15823	0.004425	0.045319	-0.008087	0.62393	-0.004272	0.057526	-0.10284	0.073853	0.002747	-0.020752	0.063934	-0.1561	-0.005341	0.13016	-0.067444	-1.2584	-0.022125	-0.29892	0.20493	0.80521	-0.31296	-0.37796	0.016022	0.052185	0.034027	-0.097809	0.035553	0	-0.000153
21.349	0.002594	-0.008698	0.072632	-0.001526	0.028076	-0.020447	0.61081	-0.004425	0.061035	-0.069275	0.037842	0.009613	-0.055542	-0.044861	-0.44479	0.000305	0.025482	-0.022583	-0.8963	-0.00061	-0.31067	0.12695	0.60791	-0.020294	-0.071716	0.031281	0.060883	0.024414	-0.099792	-0.12283	0.000153	0
21.35	0.003204	0.025787	0.039825	-0.007782	0.031128	-0.007629	0.46387	0.011749	0.055237	-0.023346	-0.27588	0.001678	-0.087585	-0.12558	-0.30243	0.000458	-0.1181	-0.037994	-1.2851	-0.035858	-0.18967	0.26062	0.50217	0.14832	0.11871	0.023193	0.049591	-0.04776	-0.11398	-0.20798	-0.00061	-0.000153
21.351	-0.003967	0.071106	0.12207	0.015106	0.015106	0.026398	0.36819	0.00824	0.03952	-0.045929	-0.5191	0.006409	-0.093231	-0.017395	0.43488	0.014801	-0.09964	-0.12314	-1.5599	-0.13596	-0.088196	0.18997	0.52445	0.12207	0.112	0.014496	0.065918	-0.071106	-0.11856	-0.26947	0.002136	-0.006714
21.352	-0.004578	0.11826	0.15854	-0.007782	0.028229	0.026093	0.34393	0.012054	0.023346	-0.038757	-0.21774	-0.005646	-0.1152	0.023651	-0.18097	0.017242	-0.098114	-0.17716	-1.0533	-0.18021	-0.036774	-0.039673	0.33005	0.3598	0.12741	0.017853	0.071411	-0.063171	-0.1236	-0.10773	0.000153	-0.014954
21.353	-0.009155	0.14572	0.21271	-0.015259	0.024414	0.036011	0.21805	-0.003204	0.016632	-0.058289	-0.005188	0.000916	-0.11383	0.061188	-0.33081	0.006714	-0.065002	-0.3598	-0.75241	-0.12543	0.10788	-0.22476	0.39154	0.40573	0.079803	0.014648	0.074615	-0.046844	-0.049286	-0.060272	-0.005188	-0.013123
21.354	-0.008545	0.1561	0.25055	-0.002136	0.02121	0.035095	0.020599	-0.007629	0.02243	-0.077362	0.1947	-0.011292	-0.070801	0.026703	-0.29602	0.002441	-0.06073	-0.63858	-1.4378	-0.059662	0.14282	-0.26077	0.3804	0.32669	0.057526	-0.015564	0.080414	-0.084686	0.006409	0.003204	0.002747	-0.016632
21.355	-0.003052	0.19409	0.27542	0.022736	0.020599	0.02533	-0.083923	-0.005341	-0.005341	-0.06897	0.33981	-0.000153	-0.11063	0.001678	0.46219	-0.00946	-0.018158	-0.67719	-2.3361	0.017548	0.10193	-0.23377	0.34836	0.10056	0.033264	-0.036621	0.095367	-0.19455	-0.10498	-0.015106	0	-0.015717
21.356	-0.003815	0.21271	0.29266	0.031281	0.019073	0.010223	-0.1593	0.00061	-0.020752	-0.003662	0.000153	0.002289	-0.19165	-0.028687	-0.014954	-0.002136	-0.025787	-0.68146	-2.2385	0.053101	0.20126	-0.32303	0.39703	0.061035	0.044708	-0.066223	0.085144	-0.030212	-0.26794	-0.12314	-0.000916	-0.00885
21.357	-0.012817	0.26093	0.31815	0.001526	0.022583	0.020142	-0.15213	0.015564	-0.056	-0.003204	-0.12894	0.001984	-0.16327	-0.045471	-0.07843	-0.006866	-0.025177	-0.84274	-0.82031	-0.098572	0.10025	-0.38666	0.45822	0.079651	0.007477	-0.11139	0.063324	0.061035	-0.24735	-0.18097	0.000153	-0.008087
21.358	-0.037231	0.23758	0.34927	-0.02243	0.025635	0.007629	-0.093994	0.016022	-0.034027	0.010376	-0.063629	-0.001068	-0.11627	-0.035858	-0.11322	-0.010834	-0.025635	-0.94513	-0.36026	-0.10803	0.16663	-0.45029	0.4039	0.039368	-0.002136	-0.15762	0.015564	-0.042725	-0.17227	-0.19623	0.000916	-0.007019
21.359	0.016937	0.28214	0.36667	-0.041199	0.029144	-0.001068	-0.11566	-0.003357	-0.029907	0.003662	-0.09201	0.001831	-0.16098	-0.024261	0.16541	-0.006866	-0.012207	-1.0149	-0.6514	-0.047607	0.21057	-0.16403	0.1976	0.022888	-0.001068	-0.18158	0.037689	-0.080261	0.027313	-0.11978	-0.001526	-0.014648
21.36	0.049286	0.2562	0.35324	-0.010681	0.015564	0.005951	-0.11917	0.001221	-0.058289	0.009308	-0.13077	0.008087	-0.10986	0.04837	0.059509	-0.012817	0.006409	-1.0793	-0.8313	0.010529	0.11169	0.044861	0.26108	-0.018768	-0.013428	-0.16739	0.037842	0.080719	0.003967	-0.16129	0.001678	-0.014038
21.361	-0.036316	0.23682	0.35706	0.01297	0.022736	0.011139	-0.008545	0.005951	-0.10742	-0.032959	-0.20203	0.001831	-0.014038	0.20004	0.55908	-0.007629	0.049133	-1.1002	-0.21347	0.10727	0.24933	-0.21179	0.13626	0.048065	0.006256	0.038605	0.027313	0.056305	0.34332	-0.19348	-0.001373	-0.015869
21.362	0.014496	0.22736	0.35568	0.022736	0.029755	0.00412	0.15717	-0.003204	-0.10864	-0.055695	0.050507	0.002594	-0.043182	0.31067	0.33493	0.010681	0.12329	-1.0373	-0.1889	0.1268	0.12726	-0.63477	0.066223	0.015869	0.019531	0.14786	0.024109	-0.044556	0.074768	0.066986	0	-0.022888
21.363	0.021362	0.2272	0.35828	-0.005951	0.026703	0.006714	0.31769	-0.013275	-0.11108	-0.018463	0.35492	0.001678	-0.13092	0.2475	0.46829	0.009003	0.12543	-1.028	-0.4628	0.046387	-0.098419	-0.61676	-0.005188	-0.041656	0.010834	0.17578	0.039368	-0.055847	-0.068054	-0.11688	0.004272	-0.023346
21.364	0.00351	0.19501	0.31601	-0.033264	0.022736	-0.014343	0.43381	-0.009308	-0.099792	-0.052948	0.37247	-0.002899	-0.032349	0.1683	0.336	0.007019	0.04837	-1.127	-0.39917	-0.047455	-0.23148	-0.20737	-0.083618	0.041504	0.000153	0.098572	0.080109	0.050812	-0.1471	-0.19852	-0.003204	-0.025177
21.365	0.005188	0.159	0.31296	-0.075684	0.019531	-0.028229	0.44159	0.001526	-0.10712	-0.046082	0.24109	-0.000458	0.075989	0.040588	-0.67322	0.008392	-0.10468	-1.2083	-0.80856	0.02243	-0.27313	0.15579	-0.1091	0.12253	-0.044708	0.005646	0.09552	-0.000916	-0.22446	-0.20538	0.000458	-0.022736
21.366	-0.005493	0.15991	0.31296	-0.054474	0.018921	-0.019531	0.39932	-0.000305	-0.12482	-0.001526	-0.10361	0.002899	0.00824	-0.019836	-0.58685	-0.016174	-0.099945	-1.1493	-0.50781	-0.029755	-0.22507	0.02655	0.036469	0.24674	-0.02243	-0.036316	0.099182	-0.015717	-0.2211	0.09552	0.000763	-0.022278
21.367	-0.012817	0.1918	0.3186	-0.042114	0.031128	-0.018311	0.41138	0.009003	-0.1265	0.02655	-0.4155	0.002594	-0.050964	-0.037537	-0.43945	-0.020294	-0.076599	-0.96634	0.080261	0.011292	-0.31097	-0.054932	0.048676	0.27298	0.029449	-0.033722	0.10498	0.035095	-0.025177	0.53894	0	-0.029907
21.368	-0.013885	0.18448	0.31647	-0.032654	0.016327	-0.015259	0.39093	0.012054	-0.12665	0.03952	-0.33966	-0.007477	-0.094757	-0.039063	-0.40558	-0.008545	-0.10803	-0.88577	-0.24735	0.08316	0.14587	-0.2446	0.057678	0.22125	-0.007782	0.036011	0.11765	0.095978	0.1796	0.066681	-0.000916	-0.027466
21.369	-0.018616	0.18875	0.30945	-0.022888	0.029144	-0.022888	0.30624	-0.001831	-0.11017	0.024719	-0.071106	-0.001068	-0.11597	-0.13565	-0.29755	0.003967	-0.080414	-1.0158	-0.96573	0.13077	0.35782	-0.23285	0.24262	0.084229	-0.044708	0.047607	0.12756	0.021057	0.14633	-0.4042	-0.005798	-0.028534
21.37	-0.010681	0.20538	0.31433	0.00946	0.014191	-0.011749	0.18249	0.001831	-0.087433	0.02533	0.018005	-0.003662	-0.11276	-0.16785	-0.10742	-0.002136	-0.036926	-1.0175	-0.75317	0.063629	0.2153	-0.32303	0.39047	0.009155	-0.059509	0.027161	0.11719	0.010681	0.08194	-0.46951	0.000916	-0.022736
21.371	-0.001678	0.2124	0.29739	0.014343	0.019684	-0.015259	0.037384	-0.046234	-0.09201	0.049896	0.052185	0.000763	-0.16251	-0.14954	0.16357	0.00061	-0.042572	-0.95871	-0.26138	0.046997	0.14145	-0.47501	0.35538	-0.008087	-0.085449	0.003967	0.084534	-0.01297	-0.071259	-0.21973	-0.000916	-0.022888
21.372	0.014038	0.24567	0.25513	0.046844	0.018616	-0.030212	-0.14572	-0.03418	-0.09552	0.056915	0.030975	-0.00473	-0.17044	-0.13519	0.20783	-0.010986	-0.014954	-0.92133	-0.46188	0.052185	0.18906	-0.63294	0.1384	0.011444	-0.042572	0.050201	0.069427	-0.018005	-0.088043	-0.026245	-0.001373	-0.023346
21.373	0.011292	0.30518	0.22873	-0.002594	0.024109	-0.036774	-0.2565	-0.025482	-0.10239	0.055237	-0.02533	0.000305	-0.11429	-0.10742	0.09552	0.002289	-0.018005	-0.96588	-0.81833	0.095215	0.11627	-0.4541	0.001678	0.039978	-0.016479	0.061798	0.096741	-0.012665	0.26657	0.17548	0.001831	-0.023499
21.374	0.01709	0.35873	0.28854	-0.013275	0.028076	-0.027313	-0.1207	-0.016632	-0.10544	0.066833	-0.018768	0.003815	-0.10925	-0.10498	0.24765	0.008392	-0.020752	-0.84915	-0.83023	-0.023041	0.044403	-0.10407	-0.11398	-0.023651	-0.048981	0.04715	0.087433	-0.016022	0.43915	0.059509	0.005951	-0.024414
21.375	0.023346	0.40985	0.31082	-0.002899	0.027161	-0.040894	-0.049286	-0.025635	-0.1059	0.061646	0.055695	0.004425	-0.10422	-0.080414	0.13626	0.006409	-0.020294	-0.70953	-0.4393	-0.048828	0.050812	0.067596	-0.33142	-0.016022	-0.050049	0.031128	0.03479	0.00473	0.12054	-0.14664	0.000763	-0.024567
21.376	0.018005	0.46066	0.34943	-0.030823	0.023041	-0.040894	0.054169	-0.019531	-0.10925	0.037537	0.14542	0.009613	-0.047607	-0.001068	0.065765	0.007782	0.001221	-0.59021	0.026245	-0.041962	0.095978	0.023346	-0.42557	0.086212	0.015411	0.039673	0.019836	0.056458	-0.029602	-0.3186	0.003052	-0.021515
21.377	0.015411	0.52475	0.30289	-0.041351	0.030518	-0.042572	0.10849	-0.021362	-0.12039	0.026093	0.025787	0.007172	-0.04425	0.081024	0.025177	0.008087	0.034943	-0.44952	0.49515	0.053406	0.11169	-0.069427	-0.32913	0.011597	0.04425	0.023804	0.015411	0.014496	0.008392	-0.32089	-0.000153	-0.023346
21.378	-0.005493	0.60074	0.20355	-0.025482	0.03952	-0.039978	0.1506	-0.013123	-0.13855	0.046234	-0.056152	0.005951	-0.090179	0.071259	0.073547	-0.000916	0.079498	-0.24078	0.84595	0.10895	0.11871	-0.11002	-0.067596	-0.015869	-0.011902	0.034943	0.11475	-0.040131	-0.013275	-0.14816	0.003052	-0.018005
